<svg xmlns="http://www.w3.org/2000/svg" width="800" height="500" viewBox="0 0 800 500" role="img" aria-label="Esquema de arquitectura">
  <rect width="800" height="500" fill="#e8e8e6"/>
  <g stroke="#0e0e0e" stroke-opacity="0.08" stroke-width="1">
    <path d="M0 62.5 H800 M0 125 H800 M0 187.5 H800 M0 250 H800 M0 312.5 H800 M0 375 H800 M0 437.5 H800"/>
    <path d="M66.6 0 V500 M133.3 0 V500 M200 0 V500 M266.6 0 V500 M333.3 0 V500 M400 0 V500 M466.6 0 V500 M533.3 0 V500 M600 0 V500 M666.6 0 V500 M733.3 0 V500"/>
  </g>
  <g fill="none" stroke="#0e0e0e" stroke-width="2">
    <rect x="80" y="90" width="200" height="120"/>
    <rect x="340" y="90" width="200" height="120"/>
    <rect x="210" y="280" width="380" height="130"/>
  </g>
  <path d="M180 210 L210 280 M620 210 L590 280 M400 210 L400 280" stroke="#0e0e0e" stroke-width="2" fill="none"/>
  <circle cx="80" cy="60" r="8" fill="#ff5c00"/>
  <g font-family="monospace" font-size="13" fill="#56564f">
    <text x="24" y="36">INGESTA</text>
    <text x="24" y="480">PROY_01 · OBSERVABILIDAD · 2025</text>
    <text x="700" y="36" text-anchor="start">800×500</text>
  </g>
</svg>
